<svg xmlns="http://www.w3.org/2000/svg"
 width="1536" height="1024" viewBox="0 0 1536 1024">

<g transform="translate(0.000000,1024.000000) scale(0.100000,-0.100000)"
fill="#137FEC" stroke="none">
<path d="M3812 7489 c-244 -29 -450 -232 -478 -473 l-6 -53 -212 -6 c-300 -7
-369 -30 -507 -167 -89 -88 -141 -182 -158 -287 -8 -47 -11 -259 -9 -677 l3
-609 120 128 120 128 5 501 c5 483 6 503 26 547 31 67 78 114 146 149 l61 30
269 0 c290 0 311 3 358 54 22 24 25 38 31 144 8 136 21 173 85 242 63 68 128
94 229 95 95 0 150 -21 219 -85 68 -63 89 -114 97 -242 8 -123 23 -160 79
-189 31 -17 60 -19 301 -19 300 0 327 -5 401 -70 24 -21 57 -62 73 -91 l30
-54 3 -1255 c2 -690 0 -1274 -3 -1297 -11 -78 -81 -154 -167 -182 -36 -12 -39
-11 -85 24 -26 20 -67 41 -90 48 l-43 11 0 106 c0 58 9 179 20 269 70 581 35
1017 -107 1372 -98 242 -253 440 -462 589 -203 146 -562 280 -746 280 -49 0
-60 -4 -86 -29 -40 -40 -38 -66 16 -233 25 -77 45 -141 45 -143 0 -2 -28 -19
-62 -37 -88 -47 -161 -118 -282 -276 -137 -179 -216 -273 -339 -406 -213 -228
-259 -295 -279 -406 -23 -124 22 -252 126 -355 104 -104 241 -152 387 -136 87
10 152 40 229 105 l54 46 94 0 93 0 -49 -57 c-200 -231 -317 -451 -338 -631
l-6 -61 -55 -22 c-77 -31 -155 -106 -195 -187 l-33 -66 -3 -191 c-3 -215 3
-242 69 -277 32 -17 86 -18 1075 -18 l1041 0 34 23 c61 40 69 71 69 257 l0
165 63 32 c106 55 200 163 243 278 18 48 19 109 22 1340 2 922 0 1307 -8 1350
-36 193 -200 367 -396 421 -42 11 -120 17 -271 21 l-213 6 0 36 c0 104 -66
240 -160 333 -130 127 -294 180 -488 157z m-116 -1365 c360 -135 570 -327 698
-636 131 -315 162 -710 100 -1248 -9 -74 -19 -195 -22 -270 l-7 -135 -606 5
-606 5 13 65 c31 150 117 279 464 695 105 127 200 247 211 267 47 90 2 185
-94 195 -54 6 -69 -3 -97 -56 -29 -56 -98 -119 -169 -154 -63 -31 -70 -32
-231 -37 -150 -5 -170 -8 -221 -32 -31 -14 -74 -41 -95 -60 -55 -49 -75 -58
-137 -58 -91 0 -168 38 -208 104 -24 39 -25 125 -3 169 9 17 76 95 148 172
165 177 255 284 388 460 58 77 124 157 147 178 24 21 89 61 145 88 142 69 153
89 116 229 -11 41 -20 76 -20 78 0 6 24 0 86 -24z m1026 -2547 c50 -34 62 -64
66 -169 l4 -98 -917 0 -917 0 4 99 c3 112 17 142 79 174 32 16 87 17 844 15
764 -3 812 -4 837 -21z"/>
<path d="M3393 5575 c-66 -28 -91 -115 -51 -175 40 -59 107 -77 168 -45 42 22
60 53 60 106 0 55 -26 94 -76 115 -41 17 -60 17 -101 -1z"/>
<path d="M7055 6620 c-235 -33 -440 -200 -516 -420 -30 -88 -37 -247 -15 -349
69 -325 410 -546 736 -477 166 35 311 142 379 280 18 37 31 69 29 71 -1 2 -48
16 -104 32 l-101 30 -19 -34 c-27 -52 -117 -129 -171 -147 -152 -53 -315 -16
-414 92 -111 119 -138 328 -64 490 34 75 113 154 188 188 54 25 74 28 157 29
84 0 101 -3 153 -28 64 -32 120 -84 147 -138 l19 -36 101 35 c98 34 101 36 95
61 -11 47 -69 132 -126 185 -117 109 -298 161 -474 136z"/>
<path d="M7760 6000 l0 -620 115 0 115 0 0 263 c0 277 5 320 46 374 50 66 192
84 263 33 66 -46 71 -71 71 -388 l0 -283 118 3 117 3 3 260 c2 143 -2 296 -8
339 -24 189 -155 308 -340 310 -101 1 -156 -19 -217 -80 l-53 -53 0 230 0 229
-115 0 -115 0 0 -620z"/>
<path d="M9055 6286 c-115 -28 -217 -111 -273 -222 -40 -80 -56 -153 -56 -254
1 -139 44 -241 139 -328 65 -60 126 -89 225 -110 144 -29 305 16 411 115 28
26 59 64 70 84 l19 37 -68 15 c-142 32 -128 33 -178 -12 -52 -45 -95 -61 -169
-61 -93 1 -179 62 -210 149 -27 77 -51 71 315 71 l330 0 0 68 c-1 275 -185
465 -448 461 -31 0 -79 -6 -107 -13z m180 -177 c51 -14 109 -73 126 -127 6
-23 10 -44 7 -47 -3 -3 -98 -4 -211 -3 l-207 3 24 51 c48 103 154 153 261 123z"/>
<path d="M9984 6290 c-183 -27 -273 -116 -274 -271 0 -54 5 -77 28 -119 47
-92 129 -134 315 -164 98 -16 132 -31 159 -67 57 -77 -62 -150 -194 -119 -41
10 -63 23 -95 56 l-43 44 -104 0 -104 0 10 -37 c49 -180 239 -279 469 -245
196 28 291 118 291 276 0 85 -19 132 -79 189 -46 46 -108 70 -246 96 -113 21
-160 40 -177 70 -33 62 10 113 100 119 72 5 109 -8 150 -54 l29 -34 105 0 105
0 -13 45 c-36 117 -133 191 -286 215 -71 11 -72 11 -146 0z"/>
<path d="M10807 6289 c-171 -24 -267 -123 -267 -273 0 -158 92 -238 318 -276
59 -10 116 -22 127 -26 38 -14 65 -46 65 -79 0 -114 -240 -125 -322 -15 -22
30 -22 30 -126 30 l-104 0 6 -31 c35 -175 232 -282 462 -251 212 28 317 137
301 312 -6 66 -23 104 -68 148 -49 48 -107 71 -240 98 -66 13 -133 31 -149 39
-54 28 -65 77 -27 121 19 22 34 28 79 32 72 6 122 -11 156 -54 l27 -34 107 0
107 0 -14 46 c-47 158 -224 243 -438 213z"/>
<path d="M6566 4858 c-8 -225 -26 -927 -26 -986 l0 -43 113 3 112 3 8 295 c4
162 10 341 13 398 l6 103 59 -133 c33 -73 99 -213 146 -311 l87 -178 91 3 90
3 67 134 c37 73 102 213 145 310 73 164 78 173 81 136 2 -22 9 -202 15 -400
l12 -360 113 -3 114 -3 -6 128 c-8 145 -36 975 -36 1041 l0 43 -120 -3 -120
-3 -128 -280 c-209 -458 -217 -474 -222 -474 -5 0 -39 71 -263 547 l-100 212
-123 0 -122 0 -6 -182z"/>
<path d="M8220 4724 c-110 -30 -192 -101 -229 -198 l-19 -51 24 -7 c13 -3 60
-8 104 -9 l81 -3 19 32 c23 37 88 71 135 72 40 0 114 -38 138 -71 20 -28 41
-115 31 -130 -3 -5 -72 -9 -153 -9 -160 0 -221 -12 -298 -57 -92 -53 -129
-124 -120 -229 8 -105 64 -179 168 -221 33 -14 71 -18 154 -18 125 0 166 15
223 80 l32 36 0 -56 0 -55 110 0 110 0 0 258 c0 378 -16 470 -93 550 -85 89
-267 126 -417 86z m290 -547 c-1 -83 -66 -157 -157 -178 -69 -16 -119 -5 -160
36 -51 51 -42 122 20 157 20 11 269 28 290 20 4 -2 7 -18 7 -35z"/>
<path d="M9257 4724 c-30 -9 -66 -32 -97 -62 l-49 -47 -3 53 -3 54 -108 0
-107 0 0 -444 0 -443 112 0 113 0 3 275 c3 253 4 278 23 317 24 50 58 76 119
93 82 22 163 -6 203 -70 21 -33 22 -49 27 -325 l5 -290 113 -3 113 -3 -3 323
c-3 308 -5 326 -26 380 -29 73 -96 142 -170 176 -71 32 -191 40 -265 16z"/>
<path d="M10128 4726 c-99 -29 -190 -104 -229 -190 -31 -68 -29 -71 54 -74 39
-1 89 -5 110 -8 28 -4 37 -2 37 9 0 8 17 30 39 50 83 75 208 52 259 -48 5 -11
11 -40 13 -65 l4 -45 -170 -6 c-133 -4 -180 -9 -215 -24 -144 -60 -198 -134
-187 -261 13 -161 140 -251 341 -242 102 5 139 19 199 77 l39 36 -3 -50 -3
-50 109 0 109 0 3 220 c3 306 -8 441 -42 510 -55 113 -153 165 -320 171 -64 2
-117 -1 -147 -10z m288 -569 c-12 -107 -126 -184 -240 -163 -78 15 -128 96
-92 151 33 50 61 60 196 65 69 3 129 3 134 1 5 -2 6 -26 2 -54z"/>
<path d="M11067 4729 c-98 -23 -204 -102 -250 -187 -75 -139 -77 -345 -3 -491
33 -65 122 -145 191 -170 149 -56 316 -25 403 74 l34 40 -5 -85 c-9 -169 -84
-240 -249 -240 -83 0 -160 25 -228 74 l-48 35 -55 -87 c-64 -101 -65 -99 33
-151 99 -53 167 -72 275 -78 239 -13 422 99 479 296 13 45 16 126 16 508 l1
455 -108 0 -108 0 -3 -52 -3 -51 -51 45 c-32 29 -68 51 -101 61 -55 16 -160
18 -220 4z m218 -200 c52 -14 126 -90 143 -145 26 -89 8 -210 -41 -262 -63
-68 -190 -88 -274 -44 -140 74 -168 277 -53 392 64 65 136 83 225 59z"/>
<path d="M12116 4729 c-205 -51 -343 -266 -323 -505 12 -139 69 -246 170 -320
78 -58 164 -84 276 -84 169 0 307 66 387 184 40 59 45 55 -90 82 l-86 17 -20
-26 c-33 -41 -116 -77 -179 -77 -67 0 -147 34 -180 76 -29 36 -51 89 -51 120
l0 24 325 0 325 0 0 65 c0 190 -83 336 -236 411 -69 35 -82 38 -177 40 -56 2
-119 -1 -141 -7z m212 -188 c58 -29 102 -93 102 -146 l0 -25 -205 0 c-228 0
-222 -2 -186 68 24 47 66 86 111 106 49 21 133 20 178 -3z"/>
<path d="M12810 4277 l0 -448 113 3 112 3 5 260 c5 246 6 262 28 302 12 24 40
54 61 68 38 26 149 51 183 42 16 -5 18 5 18 109 l0 114 -46 0 c-103 0 -182
-49 -228 -142 l-26 -52 0 95 0 94 -110 0 -110 0 0 -448z"/>
</g>
</svg>
