<svg xmlns="http://www.w3.org/2000/svg" width="32" height="32" viewBox="0 0 1024 1024"><svg xmlns="http://www.w3.org/2000/svg"<svg xmlns="http://www.w3.org/2000/svg"

<!-- Fondo blanco -->

<rect width="1024" height="1024" fill="#FFFFFF"/> width="32" height="32" viewBox="0 0 1024 1024"> width="64" height="64" viewBox="0 0 1024 1024"



<!-- Logo en azul de la app --> preserveAspectRatio="xMidYMid meet">

<g transform="translate(0.000000,1024.000000) scale(0.100000,-0.100000)" fill="#137FEC" stroke="none">

<path d="M4976 7545 c-154 -30 -292 -107 -399 -226 -84 -92 -167 -266 -167<!-- Fondo blanco -->

-350 l0 -26 -277 -6 c-313 -6 -344 -11 -483 -79 -161 -79 -304 -257 -345 -429

-12 -55 -15 -201 -15 -999 l0 -935 35 64 c41 77 145 215 255 339 l80 91 0 660<rect width="1024" height="1024" fill="#FFFFFF"/><g transform="translate(0.000000,1024.000000) scale(0.100000,-0.100000)"

c0 640 1 662 20 715 24 62 80 125 142 158 42 23 50 23 443 28 377 5 402 6 434

25 67 40 74 59 72 198 -2 143 13 204 71 285 126 175 390 187 537 26 54 -59 79fill="currentColor" stroke="none">

-118 88 -209 5 -58 1 -83 -39 -223 -12 -40 -11 -44 15 -70 l27 -27 448 -5

c442 -5 448 -5 494 -28 56 -28 112 -88 142 -151 l21 -46 3 -1520 c3 -1678 6<!-- Logo en azul oscuro --><path d="M4976 7545 c-154 -30 -292 -107 -399 -226 -84 -92 -167 -266 -167

-1579 -61 -1667 -64 -84 -163 -128 -288 -128 l-65 0 18 128 c43 312 52 457 53

847 0 401 -4 456 -51 693 -88 438 -241 747 -503 1016 -146 149 -283 252 -453<g transform="translate(0.000000,1024.000000) scale(0.100000,-0.100000)"-350 l0 -26 -277 -6 c-313 -6 -344 -11 -483 -79 -161 -79 -304 -257 -345 -429

337 -275 138 -646 223 -763 175 -36 -15 -65 -59 -65 -100 0 -14 22 -69 48

-124 54 -110 96 -272 73 -280 -7 -2 -46 -26 -86 -53 -93 -62 -174 -150 -322fill="#1E3A5F" stroke="none">-12 -55 -15 -201 -15 -999 l0 -935 35 64 c41 77 145 215 255 339 l80 91 0 660

-348 -172 -230 -281 -364 -462 -571 -240 -273 -271 -328 -271 -475 0 -205 85

-371 242 -473 105 -68 165 -86 298 -86 142 0 187 15 312 108 127 95 130 96<path d="M4976 7545 c-154 -30 -292 -107 -399 -226 -84 -92 -167 -266 -167c0 640 1 662 20 715 24 62 80 125 142 158 42 23 50 23 443 28 377 5 402 6 434

258 96 l112 0 -70 -77 c-229 -254 -358 -504 -406 -784 -6 -35 -8 -36 -57 -42

-61 -7 -154 -48 -192 -85 -63 -60 -106 -175 -92 -248 l6 -35 1292 4 c1209 3-350 l0 -26 -277 -6 c-313 -6 -344 -11 -483 -79 -161 -79 -304 -257 -345 -42925 67 40 74 59 72 198 -2 143 13 204 71 285 126 175 390 187 537 26 54 -59 79

1296 4 1352 21 203 61 370 202 461 390 68 142 65 42 62 1776 -3 1490 -4 1568

-21 1620 -75 221 -246 398 -447 461 -99 31 -184 38 -425 39 l-221 0 -18 71-12 -55 -15 -201 -15 -999 l0 -935 35 64 c41 77 145 215 255 339 l80 91 0 660-118 88 -209 5 -58 1 -83 -39 -223 -12 -40 -11 -44 15 -70 l27 -27 448 -5

c-65 253 -277 467 -518 524 -96 23 -240 27 -332 10z m-48 -1721 c344 -128 635

-394 788 -722 91 -195 155 -427 191 -692 22 -168 25 -662 5 -870 -15 -151 -60c0 640 1 662 20 715 24 62 80 125 142 158 42 23 50 23 443 28 377 5 402 6 434c442 -5 448 -5 494 -28 56 -28 112 -88 142 -151 l21 -46 3 -1520 c3 -1678 6

-496 -68 -522 -5 -17 -48 -18 -710 -18 l-704 0 0 23 c0 43 41 170 80 249 53

105 96 168 247 355 291 360 342 426 406 515 78 109 102 163 93 210 -15 82 -8325 67 40 74 59 72 198 -2 143 13 204 71 285 126 175 390 187 537 26 54 -59 79-1579 -61 -1667 -64 -84 -163 -128 -288 -128 l-65 0 18 128 c43 312 52 457 53

136 -155 124 -27 -4 -56 -26 -126 -94 -160 -158 -173 -163 -440 -172 -249 -8

-292 -22 -434 -134 -120 -95 -183 -114 -272 -82 -120 43 -199 200 -160 319 7-118 88 -209 5 -58 1 -83 -39 -223 -12 -40 -11 -44 15 -70 l27 -27 448 -5847 0 401 -4 456 -51 693 -88 438 -241 747 -503 1016 -146 149 -283 252 -453

21 68 98 153 194 240 270 352 407 508 623 46 63 101 135 121 159 58 66 151

136 232 175 82 39 133 86 147 137 14 49 12 135 -5 199 -8 30 -15 56 -15 58 0c442 -5 448 -5 494 -28 56 -28 112 -88 142 -151 l21 -46 3 -1520 c3 -1678 6337 -275 138 -646 223 -763 175 -36 -15 -65 -59 -65 -100 0 -14 22 -69 48

5 56 -11 118 -34z"/>

<path d="M4533 5100 c-115 -70 -59 -260 77 -260 76 0 140 63 140 139 0 84 -56-1579 -61 -1667 -64 -84 -163 -128 -288 -128 l-65 0 18 128 c43 312 52 457 53-124 54 -110 96 -272 73 -280 -7 -2 -46 -26 -86 -53 -93 -62 -174 -150 -322

141 -140 141 -27 0 -58 -8 -77 -20z"/>

</g>847 0 401 -4 456 -51 693 -88 438 -241 747 -503 1016 -146 149 -283 252 -453-348 -172 -230 -281 -364 -462 -571 -240 -273 -271 -328 -271 -475 0 -205 85

</svg>

337 -275 138 -646 223 -763 175 -36 -15 -65 -59 -65 -100 0 -14 22 -69 48-371 242 -473 105 -68 165 -86 298 -86 142 0 187 15 312 108 127 95 130 96

-124 54 -110 96 -272 73 -280 -7 -2 -46 -26 -86 -53 -93 -62 -174 -150 -322258 96 l112 0 -70 -77 c-229 -254 -358 -504 -406 -784 -6 -35 -8 -36 -57 -42

-348 -172 -230 -281 -364 -462 -571 -240 -273 -271 -328 -271 -475 0 -205 85-61 -7 -154 -48 -192 -85 -63 -60 -106 -175 -92 -248 l6 -35 1292 4 c1209 3

-371 242 -473 105 -68 165 -86 298 -86 142 0 187 15 312 108 127 95 130 961296 4 1352 21 203 61 370 202 461 390 68 142 65 42 62 1776 -3 1490 -4 1568

258 96 l112 0 -70 -77 c-229 -254 -358 -504 -406 -784 -6 -35 -8 -36 -57 -42-21 1620 -75 221 -246 398 -447 461 -99 31 -184 38 -425 39 l-221 0 -18 71

-61 -7 -154 -48 -192 -85 -63 -60 -106 -175 -92 -248 l6 -35 1292 4 c1209 3c-65 253 -277 467 -518 524 -96 23 -240 27 -332 10z m-48 -1721 c344 -128 635

1296 4 1352 21 203 61 370 202 461 390 68 142 65 42 62 1776 -3 1490 -4 1568-394 788 -722 91 -195 155 -427 191 -692 22 -168 25 -662 5 -870 -15 -151 -60

-21 1620 -75 221 -246 398 -447 461 -99 31 -184 38 -425 39 l-221 0 -18 71-496 -68 -522 -5 -17 -48 -18 -710 -18 l-704 0 0 23 c0 43 41 170 80 249 53

c-65 253 -277 467 -518 524 -96 23 -240 27 -332 10z m-48 -1721 c344 -128 635105 96 168 247 355 291 360 342 426 406 515 78 109 102 163 93 210 -15 82 -83

-394 788 -722 91 -195 155 -427 191 -692 22 -168 25 -662 5 -870 -15 -151 -60136 -155 124 -27 -4 -56 -26 -126 -94 -160 -158 -173 -163 -440 -172 -249 -8

-496 -68 -522 -5 -17 -48 -18 -710 -18 l-704 0 0 23 c0 43 41 170 80 249 53-292 -22 -434 -134 -120 -95 -183 -114 -272 -82 -120 43 -199 200 -160 319 7

105 96 168 247 355 291 360 342 426 406 515 78 109 102 163 93 210 -15 82 -8321 68 98 153 194 240 270 352 407 508 623 46 63 101 135 121 159 58 66 151

136 -155 124 -27 -4 -56 -26 -126 -94 -160 -158 -173 -163 -440 -172 -249 -8136 232 175 82 39 133 86 147 137 14 49 12 135 -5 199 -8 30 -15 56 -15 58 0

-292 -22 -434 -134 -120 -95 -183 -114 -272 -82 -120 43 -199 200 -160 319 75 56 -11 118 -34z"/>

21 68 98 153 194 240 270 352 407 508 623 46 63 101 135 121 159 58 66 151<path d="M4533 5100 c-115 -70 -59 -260 77 -260 76 0 140 63 140 139 0 84 -56

136 232 175 82 39 133 86 147 137 14 49 12 135 -5 199 -8 30 -15 56 -15 58 0141 -140 141 -27 0 -58 -8 -77 -20z"/>

5 56 -11 118 -34z"/></g>

<path d="M4533 5100 c-115 -70 -59 -260 77 -260 76 0 140 63 140 139 0 84 -56</svg>

141 -140 141 -27 0 -58 -8 -77 -20z"/>
</g>
</svg>
